<?xml version="1.0" standalone="no"?>
<!DOCTYPE svg PUBLIC "-//W3C//DTD SVG 20010904//EN"
 "http://www.w3.org/TR/2001/REC-SVG-20010904/DTD/svg10.dtd">
<svg version="1.0" xmlns="http://www.w3.org/2000/svg"
 width="512.000000pt" height="512.000000pt" viewBox="0 0 512.000000 512.000000"
 preserveAspectRatio="xMidYMid meet">
<metadata>
Created by potrace 1.11, written by Peter Selinger 2001-2013
</metadata>
<g transform="translate(0.000000,512.000000) scale(0.100000,-0.100000)"
fill="#000000" stroke="none">
<path d="M2518 4164 c-14 -7 -28 -22 -30 -32 -3 -10 -5 -103 -4 -206 1 -185 1
-188 25 -207 30 -24 72 -24 102 0 24 19 24 22 25 208 1 107 -3 197 -9 210 -16
36 -67 49 -109 27z"/>
<path d="M1735 3944 c-14 -15 -25 -36 -25 -48 1 -32 183 -339 210 -353 49 -24
119 29 106 81 -8 34 -173 318 -193 334 -28 21 -72 14 -98 -14z"/>
<path d="M3277 3946 c-12 -13 -59 -90 -105 -170 -93 -164 -98 -186 -45 -222
40 -27 77 -21 102 15 10 14 53 87 96 161 87 151 96 189 55 221 -35 26 -76 24
-103 -5z"/>
<path d="M2455 3498 c-365 -42 -667 -286 -788 -638 -118 -341 -22 -731 240
-982 141 -134 340 -229 533 -253 523 -67 985 297 1059 835 11 84 6 185 -14
284 -100 482 -546 809 -1030 754z"/>
<path d="M1200 3403 c-23 -8 -50 -46 -50 -71 0 -38 16 -58 77 -92 32 -18 72
-41 88 -50 199 -114 198 -114 240 -77 34 29 37 83 7 107 -37 30 -319 190 -333
189 -8 0 -21 -3 -29 -6z"/>
<path d="M3850 3392 c-91 -47 -290 -165 -301 -178 -21 -25 -13 -77 16 -101 44
-38 38 -40 268 93 62 36 118 72 125 81 21 28 14 72 -14 98 -32 30 -48 31 -94
7z"/>
<path d="M970 2618 c-11 -10 -21 -23 -21 -28 -1 -6 -2 -16 -3 -22 -4 -29 17
-67 42 -76 15 -5 109 -9 209 -8 202 1 209 3 219 67 4 26 1 41 -14 59 -20 25
-20 25 -216 26 -179 1 -197 -1 -216 -18z"/>
<path d="M3743 2629 c-30 -11 -46 -45 -39 -84 11 -57 20 -60 224 -61 102 -1
193 1 202 3 9 2 24 18 34 34 14 24 15 35 6 63 -6 19 -19 38 -28 42 -23 10
-372 13 -399 3z"/>
<path d="M1365 1959 c-66 -39 -129 -75 -140 -79 -72 -28 -97 -101 -49 -145 31
-28 62 -28 114 2 202 116 277 164 287 183 22 44 -21 110 -72 110 -11 0 -74
-32 -140 -71z"/>
<path d="M3573 2015 c-27 -19 -43 -64 -32 -91 7 -20 59 -56 164 -114 22 -12
69 -40 105 -61 36 -21 74 -36 85 -34 11 2 23 4 27 4 4 1 16 11 28 23 22 23 26
58 10 87 -12 22 -320 201 -346 201 -11 0 -29 -7 -41 -15z"/>
<path d="M1923 1579 c-17 -6 -83 -98 -83 -115 0 -3 -13 -25 -30 -49 -16 -24
-30 -46 -30 -49 0 -3 -14 -28 -31 -56 -44 -71 -47 -104 -13 -135 32 -29 73
-32 101 -7 28 24 193 315 193 340 0 47 -61 88 -107 71z"/>
<path d="M3136 1573 c-28 -14 -46 -42 -46 -68 0 -20 166 -311 192 -337 26 -26
71 -23 102 8 14 15 26 36 26 47 0 17 -134 261 -181 328 -23 32 -58 40 -93 22z"/>
<path d="M2509 1401 c-24 -19 -24 -22 -25 -208 -1 -108 3 -197 9 -210 22 -49
112 -49 134 0 6 13 10 101 9 211 -1 185 -2 188 -25 207 -30 24 -72 24 -102 0z"/>
</g>
</svg>
