<?xml version="1.0" standalone="no"?>
<!DOCTYPE svg PUBLIC "-//W3C//DTD SVG 20010904//EN"
 "http://www.w3.org/TR/2001/REC-SVG-20010904/DTD/svg10.dtd">
<svg version="1.0" xmlns="http://www.w3.org/2000/svg"
 width="300.000000pt" height="300.000000pt" viewBox="0 0 300.000000 300.000000"
 preserveAspectRatio="xMidYMid meet">
<metadata>
Created by potrace 1.11, written by Peter Selinger 2001-2013
</metadata>
<g transform="translate(0.000000,300.000000) scale(0.100000,-0.100000)"
fill="#000000" stroke="none">
<path d="M1348 2975 c-145 -18 -206 -31 -318 -67 -498 -161 -895 -609 -984
-1110 -44 -245 -44 -305 0 -570 28 -172 125 -398 240 -563 65 -94 227 -260
323 -330 222 -165 479 -262 757 -287 752 -68 1433 446 1581 1192 22 108 24
411 4 520 -95 527 -467 965 -966 1140 -112 39 -191 56 -353 75 -145 17 -141
17 -284 0z m132 -580 c0 -324 -3 -416 -12 -419 -111 -29 -184 -66 -240 -120
-34 -34 -98 -118 -98 -130 0 -3 -9 -30 -21 -61 l-20 -55 -450 0 -449 0 0 26
c0 40 20 167 30 189 5 11 17 49 26 85 9 36 23 76 30 90 7 14 24 50 38 80 36
79 71 136 132 216 92 121 274 285 374 336 19 10 42 23 50 28 40 24 172 79 230
94 36 9 74 21 85 26 28 13 136 27 223 29 l72 1 0 -415z m174 406 c3 -4 33 -11
66 -14 75 -8 200 -38 200 -47 0 -4 14 -10 30 -14 17 -3 73 -26 126 -51 285
-136 542 -415 635 -690 12 -33 27 -73 34 -90 7 -16 21 -79 29 -140 9 -60 18
-120 20 -132 l3 -23 -433 0 -432 0 -7 40 c-24 141 -188 304 -327 327 l-38 6 0
418 0 419 44 0 c25 0 47 -4 50 -9z m-10 -997 c192 -91 239 -331 95 -488 -67
-74 -129 -100 -234 -101 -68 0 -89 4 -137 28 -191 94 -237 332 -96 492 32 37
108 82 163 96 53 14 148 2 209 -27z m-554 -294 c0 -54 27 -147 62 -212 26 -48
77 -105 140 -153 19 -15 123 -57 161 -64 l32 -7 3 -427 2 -427 -67 0 c-81 0
-243 20 -243 30 0 4 -11 5 -25 2 -14 -2 -25 0 -25 5 0 5 -31 17 -70 27 -38 10
-70 22 -70 27 0 5 -7 6 -15 3 -8 -4 -15 -2 -15 4 0 6 -25 18 -56 28 -31 9 -58
23 -61 31 -3 7 -9 10 -14 7 -5 -3 -9 0 -9 5 0 6 -6 11 -14 11 -7 0 -24 10 -38
23 -13 12 -41 31 -62 42 -21 11 -42 28 -47 38 -5 9 -15 17 -22 17 -14 0 -167
154 -167 169 0 5 -9 16 -20 24 -11 8 -17 16 -14 19 3 3 -6 17 -20 31 -14 15
-26 31 -26 36 0 5 -11 22 -24 36 -14 15 -28 40 -31 56 -4 16 -11 29 -16 29 -6
0 -7 5 -4 10 3 6 2 10 -4 10 -5 0 -18 25 -27 55 -10 30 -22 55 -27 55 -5 0 -7
7 -3 15 3 8 2 15 -3 15 -8 0 -41 125 -41 159 0 12 -4 21 -9 21 -6 0 -7 16 -4
35 4 23 2 35 -6 35 -7 0 -11 34 -11 108 l0 107 455 0 455 0 0 -35z m1702 -81
c2 -45 0 -83 -4 -86 -5 -2 -8 -15 -8 -29 0 -34 -30 -177 -40 -189 -4 -5 -13
-28 -20 -50 -28 -91 -120 -258 -192 -352 -60 -77 -230 -237 -274 -258 -19 -9
-34 -20 -34 -25 0 -6 -5 -10 -10 -10 -6 0 -39 -18 -72 -40 -34 -22 -68 -40
-76 -40 -8 0 -31 -9 -51 -20 -37 -20 -166 -60 -194 -60 -8 0 -17 -4 -19 -9 -3
-8 -153 -31 -205 -31 l-23 0 0 424 0 424 38 7 c100 18 222 117 280 227 17 31
35 89 42 128 l12 70 423 0 423 0 4 -81z"/>
</g>
</svg>
