<?xml version="1.0" standalone="no"?>
<!DOCTYPE svg PUBLIC "-//W3C//DTD SVG 20010904//EN"
 "http://www.w3.org/TR/2001/REC-SVG-20010904/DTD/svg10.dtd">
<svg version="1.0" xmlns="http://www.w3.org/2000/svg"
 width="512.000000pt" height="512.000000pt" viewBox="0 0 512.000000 512.000000"
 preserveAspectRatio="xMidYMid meet">
<metadata>
Created by potrace 1.11, written by Peter Selinger 2001-2013
</metadata>
<g transform="translate(0.000000,512.000000) scale(0.100000,-0.100000)"
fill="#000000" stroke="none">
<path d="M1894 4920 c13 -52 18 -227 8 -280 -6 -30 -20 -81 -32 -112 -21 -56
-22 -57 -78 -73 -107 -29 -257 -88 -364 -141 -59 -30 -118 -54 -132 -54 -20 0
-144 20 -226 36 -14 3 18 -16 70 -41 l95 -47 -25 -16 c-515 -347 -830 -861
-890 -1451 -37 -367 38 -752 216 -1112 183 -369 443 -661 801 -899 553 -367
1243 -498 1877 -355 787 178 1383 756 1550 1506 74 335 56 714 -50 1049 -158
499 -514 949 -978 1237 -114 70 -315 170 -428 213 -49 18 -88 36 -88 40 0 4
47 52 104 108 87 85 98 99 68 85 -109 -47 -199 -78 -299 -104 -108 -27 -114
-28 -180 -14 -133 28 -306 45 -449 45 -136 0 -148 1 -197 26 -134 68 -258 182
-337 310 -23 38 -39 58 -36 44z m1609 -1276 c454 -102 684 -596 448 -961 -114
-177 -346 -285 -576 -269 -117 8 -179 25 -295 82 -208 103 -351 313 -367 538
-10 143 36 290 126 404 53 66 154 142 190 142 89 0 366 -110 581 -230 30 -17
44 -22 30 -13 -13 10 -58 42 -100 72 -83 59 -219 172 -264 220 l-30 31 93 0
c50 0 124 -7 164 -16z"/>
</g>
</svg>
